Coordinates
version=1
nRows=8
nColumns=36
inDegrees=yes

Units are S.I. units (second, meters, Newtons, ...)
If the header above contains a line with 'inDegrees', this indicates whether rotational values are in degrees (yes) or radians (no).

endheader
time	pelvis_tilt	pelvis_list	pelvis_rotation	pelvis_tx	pelvis_ty	pelvis_tz	hip_flexion_r	hip_adduction_r	hip_rotation_r	knee_angle_r	knee_angle_r_beta	ankle_angle_r	subtalar_angle_r	mtp_angle_r	hip_flexion_l	hip_adduction_l	hip_rotation_l	knee_angle_l	knee_angle_l_beta	ankle_angle_l	subtalar_angle_l	mtp_angle_l	lumbar_extension	lumbar_bending	lumbar_rotation	arm_flex_r	arm_add_r	arm_rot_r	elbow_flex_r	pro_sup_r	arm_flex_l	arm_add_l	arm_rot_l	elbow_flex_l	pro_sup_l
      1.43333330	    -28.94278966	      2.19992036	     -2.50280505	     -0.89181510	      1.07559600	     -0.09816685	     65.06501287	     -2.92697737	      4.80634815	     78.37412328	      1.36788650	     46.92013294	     -5.08941581	     -7.49999987	     61.06086191	     -0.34219545	      0.78596209	     79.43126891	      1.38633717	     48.59269115	     -2.40447165	     -7.49999987	    -23.59218062	      0.75476762	     -2.71065663	     27.97493521	    -12.05734078	      2.42625694	     48.08438932	     91.52256735	     32.11072770	    -13.57869644	     -7.43195268	     32.12471404	     75.61113979
      1.43750000	    -29.05652913	      2.25342217	     -2.69523585	     -0.88949706	      1.07580496	     -0.09786359	     64.95527983	     -2.66113444	      4.94935091	     78.23434138	      1.36544685	     47.01406359	     -5.07328020	     -7.49999987	     60.91036841	     -0.51761779	      0.85272756	     79.27327587	      1.38357967	     48.52274799	     -2.53601946	     -7.49999987	    -23.12975525	      0.62044434	     -2.27326972	     28.07007826	    -12.67529179	      2.14901899	     50.19019591	     96.26290859	     32.90590800	    -13.90948156	     -6.46600101	     32.76250470	     75.93148158
      1.44166670	    -29.27433123	      2.24913979	     -2.88314448	     -0.88835944	      1.07628561	     -0.09703275	     64.94893231	     -2.33705828	      5.01226658	     77.84231899	      1.35860476	     47.10688420	     -5.13614824	     -7.49999987	     60.88335041	     -0.76506334	      0.86309831	     79.15321811	      1.38148427	     48.48974698	     -2.74373878	     -7.49999987	    -22.61601276	      0.52147939	     -2.00196292	     28.35919843	    -13.31465268	      3.04321535	     52.02850099	     91.65433735	     33.49843901	    -14.15984967	     -6.60390152	     34.50951920	     73.59409005
      1.44583330	    -29.42531071	      2.18989252	     -3.13682794	     -0.88706804	      1.07634867	     -0.09589690	     64.76006359	     -2.05431039	      5.00195699	     77.46940125	      1.35209612	     47.16471043	     -5.40031865	     -7.49999987	     60.85514948	     -1.07110587	      0.87192632	     79.14903236	      1.38141121	     48.46398633	     -2.95765750	     -7.49999987	    -22.21137889	      0.44306279	     -1.59464239	     28.48474108	    -13.83364842	      2.54444060	     54.42474993	     94.78109168	     34.18196233	    -14.70863397	     -5.98686630	     36.44349547	     73.64664712
      1.45000000	    -29.59292524	      2.18979928	     -3.35988153	     -0.88481721	      1.07693807	     -0.09531264	     64.74068529	     -1.87323728	      5.02804184	     77.26071110	      1.34845379	     47.19531716	     -5.78361114	     -7.49999987	     60.88980935	     -1.32553438	      0.68936525	     79.35131229	      1.38494167	     48.49470989	     -3.09336472	     -7.49999987	    -21.86107548	      0.34629516	     -1.48868540	     28.76202274	    -14.28699118	      2.94705208	     56.41231029	     90.27716756	     34.24526047	    -15.27493072	     -6.12815937	     39.08847415	     71.97792047
      1.45416670	    -29.84298694	      2.14184747	     -3.60018065	     -0.88172767	      1.07431727	     -0.09535259	     64.71505760	     -1.69607990	      5.07142096	     77.07619340	      1.34523335	     47.25440411	     -6.02707140	     -7.49999987	     60.98444476	     -1.61832596	      0.56763541	     79.54134373	      1.38825834	     48.51356653	     -3.26667098	     -7.49999987	    -21.09681740	      0.33439140	     -1.17893230	     29.01628654	    -15.08607491	      3.74010194	     57.82983712	     87.52858712	     34.34693463	    -15.57347427	     -5.94741433	     40.64062911	     70.93619166
      1.45833330	    -30.06030108	      2.21777140	     -3.71138507	     -0.87784133	      1.07731025	     -0.09693427	     64.60842869	     -1.67555720	      5.20660735	     76.75356707	      1.33960246	     47.24263202	     -5.90575277	     -7.49999987	     60.76066639	     -1.54211696	      0.38522126	     79.02927944	      1.37932113	     48.61619629	     -3.36356783	     -7.49999987	    -20.60825087	      0.31430353	     -1.07108436	     29.27010850	    -15.88474178	      4.50901351	     59.27446555	     83.37434770	     34.40769248	    -15.85190241	     -5.64689697	     42.26859689	     69.04924489
      1.46250000	    -29.96131023	      2.21846603	     -3.81849920	     -0.87408772	      1.07685559	     -0.09820072	     64.12159955	     -1.74657981	      5.34761252	     76.46396293	      1.33454791	     47.11670860	     -5.88521992	     -7.49999987	     60.27256223	     -1.51484771	      0.20085102	     78.71442821	      1.37382594	     48.67118683	     -3.30265505	     -7.49999987	    -20.24858102	      0.33608723	     -0.82247462	     29.63236626	    -16.94558656	      5.50862525	     60.11042229	     84.07338538	     34.92031856	    -15.99012055	     -4.09873734	     42.36917535	     69.03371320
